<?xml version="1.0" encoding="iso-8859-1"?>
<!-- Generator: Adobe Illustrator 19.0.0, SVG Export Plug-In . SVG Version: 6.00 Build 0)  -->
<svg version="1.1" id="Capa_1" xmlns="http://www.w3.org/2000/svg" xmlns:xlink="http://www.w3.org/1999/xlink" x="0px" y="0px"
	 viewBox="0 0 512 512" style="enable-background:new 0 0 512 512;" xml:space="preserve">
<g>
	<g>
		<path d="M460.8,145.067H51.2c-4.71,0-8.533,3.814-8.533,8.533v119.467c0,4.719,3.823,8.533,8.533,8.533h175.667l23.1,23.1
			c1.664,1.664,3.849,2.5,6.033,2.5c2.185,0,4.369-0.836,6.033-2.5l23.1-23.1H460.8c4.71,0,8.533-3.814,8.533-8.533V153.6
			C469.333,148.881,465.51,145.067,460.8,145.067z M452.267,264.533H281.6c-2.261,0-4.437,0.896-6.033,2.5L256,286.601
			l-19.567-19.567c-1.596-1.604-3.772-2.5-6.033-2.5H59.733v-102.4h392.533V264.533z"/>
	</g>
</g>
<g>
	<g>
		<path d="M473.6,0H38.4C17.229,0,0,17.229,0,38.4v435.2C0,494.771,17.229,512,38.4,512h435.2c21.171,0,38.4-17.229,38.4-38.4V38.4
			C512,17.229,494.771,0,473.6,0z M494.933,473.6c0,11.767-9.566,21.333-21.333,21.333H38.4c-11.759,0-21.333-9.566-21.333-21.333
			V38.4c0-11.768,9.574-21.333,21.333-21.333h435.2c11.759,0,21.333,9.566,21.333,21.333V473.6z"/>
	</g>
</g>
<g>
	<g>
		<path d="M76.8,34.133H42.667c-4.71,0-8.533,3.814-8.533,8.533V76.8c0,4.719,3.823,8.533,8.533,8.533H76.8
			c4.71,0,8.533-3.814,8.533-8.533V42.667C85.333,37.948,81.51,34.133,76.8,34.133z M68.267,68.267H51.2V51.2h17.067V68.267z"/>
	</g>
</g>
<g>
	<g>
		<path d="M145.067,34.133h-34.133c-4.71,0-8.533,3.814-8.533,8.533V76.8c0,4.719,3.823,8.533,8.533,8.533h34.133
			c4.71,0,8.533-3.814,8.533-8.533V42.667C153.6,37.948,149.777,34.133,145.067,34.133z M136.533,68.267h-17.067V51.2h17.067V68.267
			z"/>
	</g>
</g>
<g>
	<g>
		<path d="M213.333,34.133H179.2c-4.71,0-8.533,3.814-8.533,8.533V76.8c0,4.719,3.823,8.533,8.533,8.533h34.133
			c4.71,0,8.533-3.814,8.533-8.533V42.667C221.867,37.948,218.044,34.133,213.333,34.133z M204.8,68.267h-17.067V51.2H204.8V68.267z
			"/>
	</g>
</g>
<g>
	<g>
		<path d="M473.6,0H38.4C17.229,0,0,17.229,0,38.4v72.533c0,4.719,3.823,8.533,8.533,8.533h494.933c4.71,0,8.533-3.814,8.533-8.533
			V38.4C512,17.229,494.771,0,473.6,0z M494.933,102.4H17.067v-64c0-11.768,9.574-21.333,21.333-21.333h435.2
			c11.759,0,21.333,9.566,21.333,21.333V102.4z"/>
	</g>
</g>
<g>
	<g>
		<path d="M256,324.267c-18.825,0-34.133,15.309-34.133,34.133s15.309,34.133,34.133,34.133c18.825,0,34.133-15.309,34.133-34.133
			S274.825,324.267,256,324.267z M256,375.467c-9.412,0-17.067-7.654-17.067-17.067s7.654-17.067,17.067-17.067
			c9.412,0,17.067,7.654,17.067,17.067S265.412,375.467,256,375.467z"/>
	</g>
</g>
<g>
	<g>
		<path d="M270.012,409.6h-28.015c-20.506,0-37.197,16.683-37.197,37.188v22.545c0,4.719,3.823,8.533,8.533,8.533h85.333
			c4.71,0,8.533-3.814,8.533-8.533v-22.545C307.2,426.283,290.517,409.6,270.012,409.6z M290.133,460.8h-68.267v-14.012
			c0-11.093,9.028-20.122,20.13-20.122h28.015c11.093,0,20.122,9.028,20.122,20.122V460.8z"/>
	</g>
</g>
<g>
	<g>
		<path d="M401.067,324.267c-18.825,0-34.133,15.309-34.133,34.133s15.309,34.133,34.133,34.133
			c18.825,0,34.133-15.309,34.133-34.133S419.891,324.267,401.067,324.267z M401.067,375.467c-9.412,0-17.067-7.654-17.067-17.067
			s7.654-17.067,17.067-17.067c9.412,0,17.067,7.654,17.067,17.067S410.479,375.467,401.067,375.467z"/>
	</g>
</g>
<g>
	<g>
		<path d="M415.078,409.6h-28.015c-20.506,0-37.197,16.683-37.197,37.188v22.545c0,4.719,3.823,8.533,8.533,8.533h85.333
			c4.71,0,8.533-3.814,8.533-8.533v-22.545C452.267,426.283,435.584,409.6,415.078,409.6z M435.2,460.8h-68.267v-14.012
			c0-11.093,9.028-20.122,20.13-20.122h28.015c11.093,0,20.122,9.028,20.122,20.122V460.8z"/>
	</g>
</g>
<g>
	<g>
		<path d="M110.933,324.267c-18.825,0-34.133,15.309-34.133,34.133s15.309,34.133,34.133,34.133s34.133-15.309,34.133-34.133
			S129.758,324.267,110.933,324.267z M110.933,375.467c-9.412,0-17.067-7.654-17.067-17.067s7.654-17.067,17.067-17.067
			c9.412,0,17.067,7.654,17.067,17.067S120.346,375.467,110.933,375.467z"/>
	</g>
</g>
<g>
	<g>
		<path d="M124.945,409.6H96.93c-20.506,0-37.197,16.683-37.197,37.188v22.545c0,4.719,3.823,8.533,8.533,8.533H153.6
			c4.71,0,8.533-3.814,8.533-8.533v-22.545C162.133,426.283,145.451,409.6,124.945,409.6z M145.067,460.8H76.8v-14.012
			c0-11.093,9.028-20.122,20.13-20.122h28.015c11.093,0,20.122,9.028,20.122,20.122V460.8z"/>
	</g>
</g>
<g>
	<g>
		<path d="M332.8,187.733H170.667c-4.71,0-8.533,3.814-8.533,8.533s3.823,8.533,8.533,8.533H332.8c4.71,0,8.533-3.814,8.533-8.533
			S337.51,187.733,332.8,187.733z"/>
	</g>
</g>
<g>
	<g>
		<path d="M358.4,221.867H153.6c-4.71,0-8.533,3.814-8.533,8.533s3.823,8.533,8.533,8.533h204.8c4.71,0,8.533-3.814,8.533-8.533
			S363.11,221.867,358.4,221.867z"/>
	</g>
</g>
<g>
</g>
<g>
</g>
<g>
</g>
<g>
</g>
<g>
</g>
<g>
</g>
<g>
</g>
<g>
</g>
<g>
</g>
<g>
</g>
<g>
</g>
<g>
</g>
<g>
</g>
<g>
</g>
<g>
</g>
</svg>
