<?xml version="1.0" encoding="iso-8859-1"?>
<!-- Generator: Adobe Illustrator 19.0.0, SVG Export Plug-In . SVG Version: 6.00 Build 0)  -->
<svg version="1.1" id="Capa_1" xmlns="http://www.w3.org/2000/svg" xmlns:xlink="http://www.w3.org/1999/xlink" x="0px" y="0px"
	 viewBox="0 0 512 512" style="enable-background:new 0 0 512 512;" xml:space="preserve">
<path style="fill:#8596CA;" d="M483.31,512H28.69C12.844,512,0,499.156,0,483.31V105.931h512V483.31
	C512,499.156,499.156,512,483.31,512z"/>
<path style="fill:#687492;" d="M512,105.931H0V28.69C0,12.844,12.844,0,28.69,0H483.31C499.156,0,512,12.844,512,28.69V105.931z"/>
<rect x="35.31" y="35.31" style="fill:#E64C3C;" width="35.31" height="35.31"/>
<rect x="105.931" y="35.31" style="fill:#F0C419;" width="35.31" height="35.31"/>
<rect x="176.552" y="35.31" style="fill:#24AE5F;" width="35.31" height="35.31"/>
<polygon style="fill:#FFFFFF;" points="467.862,273.655 282.483,273.655 256,300.138 229.517,273.655 44.138,273.655 
	44.138,150.069 467.862,150.069 "/>
<g>
	<circle style="fill:#546080;" cx="256" cy="361.931" r="26.483"/>
	<path style="fill:#546080;" d="M300.138,476.69h-88.276v-23.314c0-16.375,13.277-29.652,29.652-29.652h28.981
		c16.366,0,29.643,13.277,29.643,29.652V476.69z"/>
	<circle style="fill:#546080;" cx="406.069" cy="361.931" r="26.483"/>
	<path style="fill:#546080;" d="M450.207,476.69h-88.276v-23.314c0-16.375,13.277-29.652,29.652-29.652h28.981
		c16.366,0,29.643,13.277,29.643,29.652V476.69z"/>
	<circle style="fill:#546080;" cx="105.931" cy="361.931" r="26.483"/>
	<path style="fill:#546080;" d="M150.069,476.69H61.793v-23.314c0-16.375,13.277-29.652,29.652-29.652h28.981
		c16.366,0,29.643,13.277,29.643,29.652V476.69z"/>
</g>
<g>
	<path style="fill:#687492;" d="M335.448,203.034H167.724c-4.873,0-8.828-3.946-8.828-8.828s3.955-8.828,8.828-8.828h167.724
		c4.873,0,8.828,3.946,8.828,8.828S340.321,203.034,335.448,203.034z"/>
	<path style="fill:#687492;" d="M361.931,238.345H150.069c-4.873,0-8.828-3.946-8.828-8.828s3.955-8.828,8.828-8.828h211.862
		c4.873,0,8.828,3.946,8.828,8.828S366.804,238.345,361.931,238.345z"/>
</g>
<g>
</g>
<g>
</g>
<g>
</g>
<g>
</g>
<g>
</g>
<g>
</g>
<g>
</g>
<g>
</g>
<g>
</g>
<g>
</g>
<g>
</g>
<g>
</g>
<g>
</g>
<g>
</g>
<g>
</g>
</svg>
